<svg width="12" height="12" viewBox="0 0 12 12" fill="none" xmlns="http://www.w3.org/2000/svg">
<path d="M2.25 0C1.00781 0 0 1.00781 0 2.25V6.15865L2.33654 6.83654C2.76563 6.30649 3.41827 5.97115 4.15385 5.97115C4.17728 5.97115 4.20252 5.97115 4.22596 5.97115L5.50962 4.18269C5.50962 4.17188 5.50962 4.16466 5.50962 4.15385C5.50962 2.61058 6.76262 1.35577 8.30769 1.35577C9.85276 1.35577 11.1058 2.61058 11.1058 4.15385C11.1058 5.69892 9.85276 6.95192 8.30769 6.95192C8.29327 6.95192 8.27885 6.95192 8.26442 6.95192L6.49038 8.23558C6.49219 8.25901 6.49038 8.28426 6.49038 8.30769C6.49038 9.60036 5.44651 10.6442 4.15385 10.6442C2.95673 10.6442 1.98498 9.74279 1.84615 8.58173L0 8.04808V9.75C0 10.9922 1.00781 12 2.25 12H9.75C10.9922 12 12 10.9922 12 9.75V2.25C12 1.00781 10.9922 0 9.75 0H2.25ZM8.30769 2.20673C7.23498 2.20673 6.36058 3.07933 6.36058 4.15385C6.36058 5.22837 7.23498 6.10096 8.30769 6.10096C9.38041 6.10096 10.2548 5.22837 10.2548 4.15385C10.2548 3.07933 9.38041 2.20673 8.30769 2.20673ZM8.30769 2.79808C9.05409 2.79808 9.66346 3.40745 9.66346 4.15385C9.66346 4.90024 9.05409 5.50962 8.30769 5.50962C7.5631 5.50962 6.95192 4.90024 6.95192 4.15385C6.95192 3.40745 7.5631 2.79808 8.30769 2.79808ZM4.15385 6.72115C3.77344 6.72115 3.43269 6.85817 3.15865 7.08173L4.32692 7.41346C4.33594 7.41526 4.34675 7.42608 4.35577 7.42788H4.38462C4.77764 7.52885 5.0625 7.88582 5.0625 8.30769C5.0625 8.80889 4.65505 9.21635 4.15385 9.21635C4.05829 9.21635 3.96635 9.20192 3.87981 9.17308L2.65385 8.82692C2.86839 9.45252 3.45613 9.89423 4.15385 9.89423C5.03365 9.89423 5.74038 9.1875 5.74038 8.30769C5.74038 7.42788 5.03365 6.72115 4.15385 6.72115Z" fill="currentColor"/>
</svg>
