<svg width="12" height="10" viewBox="0 0 12 10" fill="none" xmlns="http://www.w3.org/2000/svg">
<path d="M5.4 3C5.4 4.10457 4.72843 5 3.9 5C3.07157 5 2.4 4.10457 2.4 3C2.4 1.89543 3.07157 1 3.9 1C4.72843 1 5.4 1.89543 5.4 3Z" fill="currentColor"/>
<path d="M3.97517 5.33333C0.795034 5.33333 0 8.44444 0 10H7.79745C7.84841 8.44444 7.15531 5.33333 3.97517 5.33333Z" fill="currentColor"/>
<path d="M9.6 2C9.6 3.10457 8.92843 4 8.1 4C7.27157 4 6.6 3.10457 6.6 2C6.6 0.895431 7.27157 0 8.1 0C8.92843 0 9.6 0.895431 9.6 2Z" fill="currentColor"/>
<path d="M7.94429 4.33994C11.4 4.1696 12 7.33625 12 9.00294L8.24352 9.00294C8.24352 6.43025 6.45 5.33626 5.7 5.33626C6.15 4.50293 7.49584 4.36204 7.94429 4.33994Z" fill="currentColor"/>
</svg>
